<svg width="2000.04" height="2296" xmlns="http://www.w3.org/2000/svg" data-name="Layer 1">
 <title>molecular-future-mof-logo</title>

 <g>
  <title>Layer 1</title>
  <path id="svg_1" fill="#faedf0" d="m608.5,73.28c83.17,-85.09 226.91,-98 323.6,-28.64c95.78,63.08 135.57,194.37 93.79,300.69c-24.36,66.52 -78.66,118.61 -142.89,146.87c19.4,99.9 40,199.5 59.5,299.24c115.86,-8.25 233.1,47 299.7,142.22c76.84,106 80.73,255.63 14.36,367.75q188,175.86 375.16,352.47c61,-49.87 146.72,-68.35 221.49,-41.09c86,29.87 147.87,116.86 146.8,208c0.84,81 -47.36,159.4 -119.3,196.29c-44.53,24 -97.38,29.33 -146.72,20.31c-82.18,-16.19 -151.46,-83.17 -170.17,-164.82c-13.13,-50.4 -4,-103.56 16,-150.84c-125.49,-117.77 -250.59,-236 -376.53,-353.24c-86.23,83.33 -216.45,117.77 -331.86,82.56c-62.93,171.55 -121.82,344.54 -184.75,516.15c23.52,36.21 42.84,76.69 44.14,120.68c2.14,65.84 -29.63,132.21 -83.71,170.24c-48.72,35.06 -113.64,47.58 -171.38,29.94c-73.86,-20 -132.06,-86 -143.21,-161.61c-7.87,-38.49 2.37,-77.29 14.13,-113.72c-25.13,-18 -50.1,-36.13 -75.23,-54.08c-30.63,16.65 -64.23,30.47 -99.75,28.49c-72.3,1.65 -140.73,-49.37 -162.67,-117.8c-22,-62.32 -2.6,-135.95 45.9,-180.55c44.91,-43.16 114,-58 172.77,-37.89c65.83,21.16 115.63,85.16 117.69,154.59c2.45,31 -6.87,61.1 -16.95,90c23.44,16 46.36,32.76 69.73,48.88c29.86,-22.91 64.08,-41.32 101.81,-46.67c39.48,-7.94 79,3.29 116.47,14.82c58.12,-165.51 117.62,-330.48 175.9,-496c-98.91,-61 -166.2,-173.37 -161.85,-290.91c-3.47,-140.78 95.53,-272.84 228.01,-317.06c-18.71,-99.44 -39.87,-198.42 -58.74,-297.79c-82.94,1.53 -166.11,-35.59 -215.74,-102.76c-76.6,-97.38 -65.45,-249.6 24.52,-334.68m153.68,31.31c-82.41,11 -143.13,99.6 -124,180.48c13.06,67.06 75.61,121.9 144.74,121.28c67,4.36 132.2,-42.92 150.61,-107.15c20.85,-64.39 -7.94,-140.53 -66.45,-174.6c-30.85,-19.86 -69,-25 -104.86,-20m154.21,835.58c-95.78,22.92 -161.08,126.94 -140.76,223.18c14.74,89.43 99.51,160.31 190.33,158.32c88.74,2.45 172.3,-64.76 190.17,-151.53c18.26,-76.76 -16.34,-163.06 -83.32,-205c-45.52,-30 -103.88,-39.11 -156.42,-25m823.87,768.81c-55.76,18.48 -92.8,82.56 -76.76,139.85c12.6,55.9 70.11,97.22 127.24,90.27c61.1,-5.27 111.89,-64 105.86,-125.56c-1.53,-74.93 -86.31,-132 -156.34,-104.56m-1596.11,23.25c-63,18.63 -79.43,111 -26.58,150.23c48.8,44.52 136.79,9.39 142.36,-56.22c10.93,-61.33 -57.81,-118.23 -115.78,-94m359.35,269.3c-28.11,7.94 -51.86,29.4 -63.39,56.21c-25.44,56 14.81,128.16 76.14,134.58c56.52,10.08 114.11,-39 111.59,-96.54c3,-62.87 -64.69,-113.2 -124.34,-94.26"/>
 </g>
</svg>